<svg xmlns="http://www.w3.org/2000/svg" viewBox="0 0 285 36.14">
	<defs>
		<style>
			.cls-1 {
				fill: #bfa249;
				stroke: #590502;
			}

			.cls-1,
			.cls-2 {
				stroke-miterlimit: 10;
			}

			.cls-2 {
				stroke: #593b02;
				stroke-width: 10px;
			}
		</style>
	</defs>
	<g id="Layer_2" data-name="Layer 2">
		<g id="Layer_1-2" data-name="Layer 1">
			<path class="cls-1"
				d="M52.12,41.78,36.76,22.15c-.42-.55-.85-1.12-1.3-1.73s-.9-1.23-1.34-1.87h0l.09,14.88c0,.86,0,1.69,0,2.49A18,18,0,0,1,34,37.75a16.33,16.33,0,0,1,2-.12l1.65,0v3.7H26.63V38.13a7.11,7.11,0,0,0,1.85-.29,1.93,1.93,0,0,0,1.15-1.1A7,7,0,0,0,30,34l-.1-18.39c0-.86,0-1.69,0-2.49s.08-1.41.14-1.83c-.51,0-1.16.06-1.94.07s-1.35,0-1.7.08V7.7H34L48.71,26.23c.8,1,1.46,1.9,2,2.64s1,1.37,1.37,1.92h0V15.57c0-.86,0-1.69,0-2.49s.07-1.41.1-1.83c-.51,0-1.15.06-1.92.07s-1.33,0-1.68.08V7.7H59.6v3.17a7.15,7.15,0,0,0-1.82.29,2,2,0,0,0-1.18,1.08,7,7,0,0,0-.4,2.8V41.78Z"
				transform="translate(0 -6.43)" />
			<path class="cls-1"
				d="M79.19,42.07a17.67,17.67,0,0,1-7.75-1.54,14,14,0,0,1-5.16-4.1,17.27,17.27,0,0,1-2.88-5.69,22.07,22.07,0,0,1-.91-6.24,19.17,19.17,0,0,1,1-6.12,18.32,18.32,0,0,1,3.12-5.69,15.47,15.47,0,0,1,5.25-4.17,16.44,16.44,0,0,1,7.44-1.59,16.61,16.61,0,0,1,7.54,1.59,14.6,14.6,0,0,1,5.18,4.2,18.26,18.26,0,0,1,3,5.68,19.8,19.8,0,0,1,1,6.1,19.18,19.18,0,0,1-1,6.05,18.66,18.66,0,0,1-3.12,5.69,15.86,15.86,0,0,1-5.26,4.22A16.25,16.25,0,0,1,79.19,42.07Zm.53-3.51a6.86,6.86,0,0,0,4.17-1.22,8.92,8.92,0,0,0,2.69-3.19A15.78,15.78,0,0,0,88,29.85a24.59,24.59,0,0,0,.43-4.53,29.69,29.69,0,0,0-.57-6.05,15.28,15.28,0,0,0-1.78-4.73,8.55,8.55,0,0,0-3-3.07,8.05,8.05,0,0,0-4.34-1,6.86,6.86,0,0,0-4.13,1.32A9.26,9.26,0,0,0,71.89,15a16.17,16.17,0,0,0-1.44,4.34A26,26,0,0,0,70,23.92a24.37,24.37,0,0,0,.51,4.8,19.36,19.36,0,0,0,1.6,4.8,9.85,9.85,0,0,0,3,3.65A7.49,7.49,0,0,0,79.72,38.56Z"
				transform="translate(0 -6.43)" />
			<path class="cls-1"
				d="M124.93,18.55a11.13,11.13,0,0,0-.72-4.3A5.1,5.1,0,0,0,119,10.92h-2.3V33.43c0,.86,0,1.69,0,2.49a15.49,15.49,0,0,1-.15,1.83,18.75,18.75,0,0,1,2.09-.12l1.75,0v3.7h-14V38.13a7.11,7.11,0,0,0,1.85-.29,1.93,1.93,0,0,0,1.15-1.1,7,7,0,0,0,.41-2.78V11h-2.21a5.56,5.56,0,0,0-4.32,1.88c-1.06,1.21-1.59,3.12-1.59,5.71H98.49L98.73,7.7h29.08l.29,10.85Z"
				transform="translate(0 -6.43)" />
			<path class="cls-1"
				d="M131.32,41.3V38.13a7,7,0,0,0,1.84-.29,2,2,0,0,0,1.16-1.1,7,7,0,0,0,.41-2.78V15.57c0-.86,0-1.69.07-2.49s.08-1.41.12-1.83c-.52,0-1.15.06-1.92.07s-1.33,0-1.68.08V7.7h13.77v3.17a7.15,7.15,0,0,0-1.82.29,2,2,0,0,0-1.18,1.08,6.93,6.93,0,0,0-.41,2.8v7.49h13.2v-7c0-.86,0-1.69.05-2.49a15.49,15.49,0,0,1,.15-1.83c-.52,0-1.16.06-1.92.07s-1.33,0-1.68.08V7.7h13.77v3.17a7.15,7.15,0,0,0-1.82.29,2,2,0,0,0-1.18,1.08,7,7,0,0,0-.4,2.8V33.43c0,.86,0,1.69,0,2.49a18,18,0,0,1-.15,1.83,16.33,16.33,0,0,1,1.95-.12l1.65,0v3.7H151.48V38.13a7.11,7.11,0,0,0,1.85-.29,2,2,0,0,0,1.15-1.1,7,7,0,0,0,.4-2.78V26.18l-13.2.14v7.11c0,.86,0,1.69,0,2.49a18,18,0,0,1-.15,1.83,16.33,16.33,0,0,1,1.95-.12l1.65,0v3.7Z"
				transform="translate(0 -6.43)" />
			<path class="cls-1"
				d="M183.83,10.87a7.08,7.08,0,0,0-1.82.29,1.92,1.92,0,0,0-1.18,1.08,6.93,6.93,0,0,0-.41,2.8V33.43c0,.86,0,1.69,0,2.49s-.08,1.41-.14,1.83a16.29,16.29,0,0,1,1.94-.12l1.66,0v3.7H170.05V38.13a7,7,0,0,0,1.85-.29,1.91,1.91,0,0,0,1.15-1.1,7,7,0,0,0,.41-2.78V15.57c0-.86,0-1.69.07-2.49s.09-1.41.12-1.83c-.51,0-1.15.06-1.92.07s-1.32,0-1.68.08V7.7h13.78Z"
				transform="translate(0 -6.43)" />
			<path class="cls-1"
				d="M214.16,41.78,198.8,22.15l-1.29-1.73c-.45-.61-.9-1.23-1.35-1.87h0l.09,14.88c0,.86,0,1.69-.05,2.49s-.08,1.41-.14,1.83a16.29,16.29,0,0,1,1.94-.12l1.66,0v3.7H188.68V38.13a7,7,0,0,0,1.84-.29,2,2,0,0,0,1.16-1.1,7,7,0,0,0,.4-2.78L192,15.57c0-.86,0-1.69,0-2.49s.08-1.41.14-1.83c-.51,0-1.16.06-1.94.07s-1.36,0-1.71.08V7.7h7.54l14.69,18.53c.8,1,1.46,1.9,2,2.64s1,1.37,1.37,1.92h0V15.57c0-.86,0-1.69.05-2.49s.07-1.41.1-1.83c-.51,0-1.15.06-1.92.07s-1.33,0-1.68.08V7.7h10.94v3.17a7.15,7.15,0,0,0-1.82.29,2,2,0,0,0-1.18,1.08,6.93,6.93,0,0,0-.41,2.8V41.78Z"
				transform="translate(0 -6.43)" />
			<path class="cls-1"
				d="M240.9,42.07a16.32,16.32,0,0,1-8.83-2.28,15,15,0,0,1-5.57-6.17A19.23,19.23,0,0,1,224.58,25a21,21,0,0,1,1-6.48,18.38,18.38,0,0,1,3.1-5.83,14.9,14.9,0,0,1,5.21-4.18,16.24,16.24,0,0,1,7.32-1.56,18,18,0,0,1,2.92.27,22.13,22.13,0,0,1,3.29.79,14,14,0,0,1,3,1.29l-.19-2h3.7V18.45h-3.12A10.61,10.61,0,0,0,249.11,14,8.06,8.06,0,0,0,246,11.3a9.3,9.3,0,0,0-4.13-.91,8,8,0,0,0-4.34,1.15,9.42,9.42,0,0,0-3.05,3.07,14.88,14.88,0,0,0-1.8,4.37,21.07,21.07,0,0,0-.6,5,21.63,21.63,0,0,0,1.15,7.34,11.42,11.42,0,0,0,3.38,5.07,8.35,8.35,0,0,0,5.5,1.85,18.39,18.39,0,0,0,2.16-.15,22.16,22.16,0,0,0,2.5-.43,9.44,9.44,0,0,0,2.11-.72V32.52c0-.87,0-1.7.07-2.5s.09-1.41.12-1.82c-.51,0-1.15.05-1.92.07s-1.33,0-1.68.07v-3.7h12.77v3.17a8.59,8.59,0,0,0-1.42.19,2,2,0,0,0-1,.56,2.46,2.46,0,0,0-.61,1.22A10.58,10.58,0,0,0,255,32v7.68h-1.15a10.58,10.58,0,0,0-2.78.38c-.93.26-1.92.55-3,.87s-2.08.55-3.26.79A20,20,0,0,1,240.9,42.07Z"
				transform="translate(0 -6.43)" />
			<line class="cls-2" id="cross" y1="18.05" x2="285" y2="18.05" />
		</g>
	</g>
</svg>